<svg width="89" height="34" viewBox="0 0 89 34" fill="none" xmlns="http://www.w3.org/2000/svg">
<path d="M33.6789 25.4545C33.5355 25.4545 33.4304 25.5501 33.4304 25.703C33.4304 25.8463 33.5355 25.9418 33.6789 25.9418C33.8222 25.9418 33.9273 25.8463 33.9273 25.703C33.9273 25.5501 33.8222 25.4545 33.6789 25.4545Z" fill="#28505B"/>
<path d="M39.3735 25.4545C39.2301 25.4545 39.125 25.5501 39.125 25.703C39.125 25.8463 39.2301 25.9418 39.3735 25.9418C39.5168 25.9418 39.6219 25.8463 39.6219 25.703C39.6219 25.5501 39.5168 25.4545 39.3735 25.4545Z" fill="#28505B"/>
<path d="M6.11352 25.101H5.84598C5.81732 25.101 5.78866 25.1106 5.7791 25.1392L3.09423 29.8688L0.418909 25.1392C0.3998 25.1106 0.371136 25.101 0.342471 25.101H0.0749396C0.0367208 25.101 0.00805664 25.1201 0.00805664 25.1583V31.8753C0.00805664 31.9135 0.0367208 31.9326 0.0749396 31.9326H0.275589C0.304253 31.9326 0.332917 31.9135 0.332917 31.8753L0.323362 25.5979V25.5883L2.94135 30.2223C2.96046 30.2414 2.98913 30.2606 3.01779 30.2606H3.17067C3.19933 30.2606 3.23755 30.2414 3.2471 30.2223L5.86509 25.5883V25.5979L5.85554 31.8753C5.85554 31.9135 5.8842 31.9326 5.91287 31.9326H6.11352C6.15173 31.9326 6.1804 31.9135 6.1804 31.8753V25.1583C6.1804 25.1201 6.15173 25.101 6.11352 25.101Z" fill="#28505B"/>
<path d="M12.1425 27.0215H11.9514C11.9132 27.0215 11.8941 27.0502 11.8941 27.0884V31.1109C11.4737 31.3307 10.996 31.4644 10.4705 31.4644C9.43855 31.4644 8.76972 30.9772 8.76972 29.8975V27.0884C8.76972 27.0502 8.74106 27.0215 8.70284 27.0215H8.5213C8.48308 27.0215 8.46397 27.0502 8.46397 27.0884V29.907C8.46397 31.1491 9.26657 31.7511 10.4418 31.7511C10.9673 31.7511 11.4737 31.6269 11.8941 31.4071V32.0664C11.9037 32.9645 11.4259 33.5569 10.3558 33.5569C9.66787 33.5569 9.18058 33.2512 8.75062 32.8785C8.72195 32.8499 8.69329 32.8594 8.67418 32.8881L8.56908 33.0123C8.54997 33.041 8.54997 33.0792 8.56908 33.0983C9.06592 33.5474 9.62965 33.8436 10.3558 33.8436C11.6266 33.8436 12.1999 33.1079 12.1999 32.076V27.0884C12.1999 27.0502 12.1808 27.0215 12.1425 27.0215Z" fill="#28505B"/>
<path d="M18.42 25.101H14.5981C14.5599 25.101 14.5312 25.1201 14.5312 25.1583V31.8753C14.5312 31.9135 14.5599 31.9326 14.5981 31.9326H14.7987C14.8274 31.9326 14.8561 31.9135 14.8561 31.8753V28.7031H18.1524C18.1907 28.7031 18.2098 28.684 18.2098 28.6458V28.4643C18.2098 28.4356 18.1907 28.4069 18.1524 28.4069H14.8561V25.3972H18.42C18.4582 25.3972 18.4869 25.3781 18.4869 25.3399V25.1583C18.4869 25.1201 18.4582 25.101 18.42 25.101Z" fill="#28505B"/>
<path d="M21.9361 26.926C20.8182 26.926 20.0347 27.5852 20.0347 28.7414V30.2892C20.0347 31.388 20.9329 32.0282 21.9361 32.0282C22.7483 32.0282 23.3407 31.6651 23.742 31.2925C23.7802 31.2734 23.7802 31.2447 23.7515 31.216L23.6464 31.0918C23.6273 31.0632 23.5986 31.0632 23.57 31.0823C23.2069 31.4071 22.6909 31.7511 21.9457 31.7511C21.0762 31.7511 20.3405 31.216 20.3405 30.2892V29.6586H23.7802C23.8088 29.6586 23.8375 29.6395 23.8375 29.6013V28.7414C23.8375 27.5852 23.054 26.926 21.9361 26.926ZM23.5318 29.3911H20.3405V28.7414C20.3405 27.7572 20.9711 27.2126 21.9361 27.2126C22.9011 27.2126 23.5318 27.7668 23.5318 28.7414V29.3911Z" fill="#28505B"/>
<path d="M28.3378 27.012C28.032 26.9642 27.6976 26.926 27.3727 26.926C26.8281 26.926 26.2262 27.0406 25.7676 27.2604C25.7389 27.2699 25.7198 27.2986 25.7198 27.3273V31.8753C25.7198 31.9135 25.7484 31.9326 25.7771 31.9326H25.9682C26.0064 31.9326 26.0255 31.9135 26.0255 31.8753V27.461C26.4364 27.2986 26.9332 27.2126 27.3919 27.2126C27.7072 27.2126 28.0416 27.2413 28.3378 27.289C28.376 27.2986 28.3951 27.2795 28.3951 27.2413V27.0788C28.3951 27.0406 28.3855 27.0215 28.3378 27.012Z" fill="#28505B"/>
<path d="M31.9686 31.6938C31.7775 31.7129 31.5386 31.7224 31.3953 31.7224C30.6309 31.7224 30.2296 31.2542 30.2296 30.4517V27.3177H31.8443C31.873 27.3177 31.9017 27.289 31.9017 27.2508V27.0884C31.9017 27.0597 31.873 27.0311 31.8443 27.0311H30.2296V25.8463C30.22 25.8081 30.2009 25.789 30.1627 25.789H29.9812C29.943 25.789 29.9239 25.8081 29.9239 25.8463V30.4612C29.9239 31.4453 30.478 32.0091 31.3953 32.0091C31.529 32.0091 31.787 31.9995 31.9686 31.9804C32.0068 31.9708 32.0259 31.9517 32.0259 31.9135V31.7511C32.0259 31.7129 32.0068 31.6938 31.9686 31.6938Z" fill="#28505B"/>
<path d="M33.7744 27.0215H33.5833C33.5451 27.0215 33.526 27.0502 33.526 27.0884V31.8753C33.526 31.9135 33.5451 31.9326 33.5833 31.9326H33.7744C33.8126 31.9326 33.8317 31.9135 33.8317 31.8753V27.0884C33.8317 27.0502 33.8126 27.0215 33.7744 27.0215Z" fill="#28505B"/>
<path d="M37.7014 31.7033C37.5103 31.732 37.2905 31.7415 37.1568 31.7415C36.593 31.7415 36.2395 31.388 36.2395 30.4803V25.1583C36.2395 25.1201 36.2204 25.101 36.1822 25.101H35.9911C35.9529 25.101 35.9338 25.1201 35.9338 25.1583V30.4517C35.9338 31.5696 36.4115 32.0282 37.1472 32.0282C37.3001 32.0282 37.539 32.0091 37.7014 31.99C37.7396 31.9804 37.7587 31.9517 37.7587 31.9135V31.7511C37.7587 31.7129 37.7396 31.7033 37.7014 31.7033Z" fill="#28505B"/>
<path d="M39.469 27.0215H39.2779C39.2397 27.0215 39.2206 27.0502 39.2206 27.0884V31.8753C39.2206 31.9135 39.2397 31.9326 39.2779 31.9326H39.469C39.5072 31.9326 39.5263 31.9135 39.5263 31.8753V27.0884C39.5263 27.0502 39.5072 27.0215 39.469 27.0215Z" fill="#28505B"/>
<path d="M43.6731 31.6938C43.482 31.7129 43.2431 31.7224 43.0998 31.7224C42.3354 31.7224 41.9341 31.2542 41.9341 30.4517V27.3177H43.5489C43.5775 27.3177 43.6062 27.289 43.6062 27.2508V27.0884C43.6062 27.0597 43.5775 27.0311 43.5489 27.0311H41.9341V25.8463C41.9246 25.8081 41.9055 25.789 41.8672 25.789H41.6857C41.6475 25.789 41.6284 25.8081 41.6284 25.8463V30.4612C41.6284 31.4453 42.1825 32.0091 43.0998 32.0091C43.2336 32.0091 43.4915 31.9995 43.6731 31.9804C43.7113 31.9708 43.7304 31.9517 43.7304 31.9135V31.7511C43.7304 31.7129 43.7113 31.6938 43.6731 31.6938Z" fill="#28505B"/>
<path d="M48.8613 27.0215H48.6702C48.632 27.0215 48.6129 27.0502 48.6129 27.0884V31.1109C48.1925 31.3307 47.7147 31.4644 47.1892 31.4644C46.1573 31.4644 45.4885 30.9772 45.4885 29.8975V27.0884C45.4885 27.0502 45.4598 27.0215 45.4216 27.0215H45.2401C45.2018 27.0215 45.1827 27.0502 45.1827 27.0884V29.907C45.1827 31.1491 45.9853 31.7511 47.1605 31.7511C47.6861 31.7511 48.1925 31.6269 48.6129 31.4071V32.0664C48.6224 32.9645 48.1447 33.5569 47.0746 33.5569C46.3866 33.5569 45.8993 33.2512 45.4694 32.8785C45.4407 32.8499 45.412 32.8594 45.3929 32.8881L45.2878 33.0123C45.2687 33.041 45.2687 33.0792 45.2878 33.0983C45.7847 33.5474 46.3484 33.8436 47.0746 33.8436C48.3453 33.8436 48.9186 33.1079 48.9186 32.076V27.0884C48.9186 27.0502 48.8995 27.0215 48.8613 27.0215Z" fill="#28505B"/>
<path d="M54.7298 25.101H54.5291C54.4909 25.101 54.4718 25.1201 54.4718 25.1583V29.9835C54.4718 31.1969 53.9845 31.7224 52.9813 31.7224C52.3411 31.7224 51.8538 31.4644 51.3665 31.0154C51.3283 30.9867 51.2996 30.9867 51.2805 31.0249L51.1754 31.1683C51.1563 31.1969 51.1563 31.2351 51.185 31.2542C51.7105 31.7415 52.2551 32.0282 52.9813 32.0282C54.1661 32.0282 54.7871 31.3593 54.7871 29.9835V25.1583C54.7871 25.1201 54.768 25.101 54.7298 25.101Z" fill="#28505B"/>
<path d="M58.8765 26.926C57.5866 26.926 56.8892 27.719 56.8892 28.7222V30.2319C56.8892 31.2447 57.5866 32.0282 58.8765 32.0282C60.1664 32.0282 60.8639 31.2447 60.8639 30.2319V28.7222C60.8639 27.719 60.176 26.926 58.8765 26.926ZM60.5582 30.2319C60.5582 31.0823 60.004 31.7511 58.8765 31.7511C57.7491 31.7511 57.1949 31.0823 57.1949 30.2319V28.7222C57.1949 27.8814 57.7586 27.2126 58.8765 27.2126C59.9944 27.2126 60.5582 27.8814 60.5582 28.7222V30.2319Z" fill="#28505B"/>
<path d="M66.463 27.0215H66.2814C66.2432 27.0215 66.2145 27.0502 66.2145 27.0884V31.4644C65.7941 31.6269 65.2973 31.7511 64.7718 31.7511C63.7017 31.7511 63.0902 31.2065 63.0902 30.0981V27.0884C63.0902 27.0502 63.071 27.0215 63.0328 27.0215H62.8417C62.8035 27.0215 62.7844 27.0502 62.7844 27.0884V30.0981C62.7844 31.3785 63.5392 32.0282 64.7718 32.0282C65.3833 32.0282 65.9757 31.8944 66.4725 31.6651C66.5107 31.6555 66.5203 31.6173 66.5203 31.5887V27.0884C66.5203 27.0502 66.5012 27.0215 66.463 27.0215Z" fill="#28505B"/>
<path d="M71.2594 27.012C70.9537 26.9642 70.6193 26.926 70.2944 26.926C69.7498 26.926 69.1478 27.0406 68.6892 27.2604C68.6606 27.2699 68.6414 27.2986 68.6414 27.3273V31.8753C68.6414 31.9135 68.6701 31.9326 68.6988 31.9326H68.8899C68.9281 31.9326 68.9472 31.9135 68.9472 31.8753V27.461C69.358 27.2986 69.8549 27.2126 70.3135 27.2126C70.6288 27.2126 70.9632 27.2413 71.2594 27.289C71.2977 27.2986 71.3168 27.2795 71.3168 27.2413V27.0788C71.3168 27.0406 71.3072 27.0215 71.2594 27.012Z" fill="#28505B"/>
<path d="M74.6609 26.926C74.0399 26.926 73.4379 27.0597 72.922 27.289C72.8933 27.3081 72.8742 27.3368 72.8742 27.3655V31.8753C72.8742 31.9135 72.9028 31.9326 72.9315 31.9326H73.1226C73.1608 31.9326 73.1799 31.9135 73.1799 31.8753V27.4897C73.6003 27.3273 74.1354 27.2126 74.6609 27.2126C75.7597 27.2126 76.3808 27.7572 76.3808 28.8656V31.8753C76.3808 31.9135 76.4094 31.9326 76.4476 31.9326H76.6292C76.6674 31.9326 76.6865 31.9135 76.6865 31.8753V28.856C76.6865 27.5661 75.9317 26.926 74.6609 26.926Z" fill="#28505B"/>
<path d="M80.4988 26.926C79.3809 26.926 78.5975 27.5852 78.5975 28.7414V30.2892C78.5975 31.388 79.4956 32.0282 80.4988 32.0282C81.311 32.0282 81.9034 31.6651 82.3047 31.2925C82.3429 31.2734 82.3429 31.2447 82.3142 31.216L82.2091 31.0918C82.19 31.0632 82.1614 31.0632 82.1327 31.0823C81.7696 31.4071 81.2537 31.7511 80.5084 31.7511C79.6389 31.7511 78.9032 31.216 78.9032 30.2892V29.6586H82.3429C82.3716 29.6586 82.4002 29.6395 82.4002 29.6013V28.7414C82.4002 27.5852 81.6167 26.926 80.4988 26.926ZM82.0945 29.3911H78.9032V28.7414C78.9032 27.7572 79.5338 27.2126 80.4988 27.2126C81.4639 27.2126 82.0945 27.7668 82.0945 28.7414V29.3911Z" fill="#28505B"/>
<path d="M87.9229 27.0215H87.7318C87.6935 27.0215 87.6744 27.0502 87.6744 27.0884V31.1109C87.254 31.3307 86.7763 31.4644 86.2508 31.4644C85.2189 31.4644 84.55 30.9772 84.55 29.8975V27.0884C84.55 27.0502 84.5214 27.0215 84.4832 27.0215H84.3016C84.2634 27.0215 84.2443 27.0502 84.2443 27.0884V29.907C84.2443 31.1491 85.0469 31.7511 86.2221 31.7511C86.7476 31.7511 87.254 31.6269 87.6744 31.4071V32.0664C87.684 32.9645 87.2062 33.5569 86.1361 33.5569C85.4482 33.5569 84.9609 33.2512 84.5309 32.8785C84.5023 32.8499 84.4736 32.8594 84.4545 32.8881L84.3494 33.0123C84.3303 33.041 84.3303 33.0792 84.3494 33.0983C84.8462 33.5474 85.41 33.8436 86.1361 33.8436C87.4069 33.8436 87.9802 33.1079 87.9802 32.076V27.0884C87.9802 27.0502 87.9611 27.0215 87.9229 27.0215Z" fill="#28505B"/>
<path d="M48.9167 22.9225C48.9358 22.7888 48.9167 22.6703 48.8613 22.5767C48.7715 22.4295 48.6205 22.3856 48.5116 22.355C48.4734 22.3454 48.439 22.3359 48.4084 22.3206C48.0606 22.1505 48.202 20.9734 48.2765 20.3409C48.2861 20.253 48.2976 20.1708 48.3052 20.0963C48.3969 19.2459 48.3816 18.3611 48.2593 17.4611L48.395 17.4553C48.4504 17.4534 48.4944 17.4114 48.5039 17.3579C48.5689 16.9145 48.6205 16.4578 48.6549 16.003C48.7122 15.2616 48.7275 14.5067 48.6989 13.7519C49.0562 14.438 49.5569 14.9463 49.7938 15.0323C49.8225 15.0418 49.8492 15.0475 49.8741 15.0475C49.9047 15.0475 49.9314 15.0399 49.9543 15.0246C50.0614 14.9577 50.025 14.845 49.9658 14.6558C49.918 14.5029 49.8435 14.2698 49.7843 13.9373C49.7537 13.7615 49.7346 13.5857 49.7212 13.406C50.1569 13.7863 50.52 14.2163 50.7913 14.694C50.8429 14.7877 50.8926 14.8775 50.9289 14.9558C50.9595 15.0514 50.9633 15.1316 50.9671 15.2004C50.9729 15.3036 50.9767 15.4106 51.0703 15.5062C51.1391 15.575 51.2442 15.6208 51.3398 15.6208C51.3914 15.6208 51.4391 15.6075 51.4774 15.5769C51.5653 15.5043 51.5481 15.3953 51.5347 15.3227L51.5309 15.2979C51.5595 15.3055 51.5978 15.3208 51.6245 15.3304C51.7315 15.3705 51.8519 15.4144 51.9341 15.3265C52.0048 15.2501 51.9685 15.1507 51.9436 15.0858L51.9264 15.038C51.9455 15.038 51.9704 15.038 51.9876 15.038C52.0621 15.0418 52.1768 15.0475 52.2303 14.952C52.322 14.7934 52.1156 14.5927 52.0506 14.5354C51.9322 14.4303 51.785 14.3653 51.6092 14.3405C51.1793 13.6831 50.7111 13.0334 50.2142 12.4104C50.0193 12.1658 49.8282 11.9346 49.641 11.7187C49.7117 11.2925 50.0977 8.46244 48.2804 7.00439C47.6994 6.54003 47.0593 6.27632 46.3752 6.22473C45.5248 6.15976 44.6553 6.44066 43.9234 7.01968C42.8839 7.83756 42.3106 9.22873 42.4615 10.5607C42.5246 11.1206 42.7195 11.6403 42.9393 12.0493C42.6526 12.2977 42.3622 12.5652 42.0717 12.8519C41.7564 13.1614 41.4545 13.4787 41.1697 13.7997C41.0379 13.7959 40.8659 13.8169 40.7035 13.9182C40.6289 13.964 40.3939 14.1265 40.457 14.2985C40.4971 14.4016 40.6098 14.415 40.6844 14.4246C40.7016 14.4265 40.7245 14.4284 40.7417 14.4322L40.7169 14.4743C40.6825 14.5335 40.6289 14.6252 40.6844 14.7112C40.7188 14.7647 40.7684 14.7838 40.8258 14.7857C40.7226 15.3285 40.5716 15.8673 40.371 16.389C40.3595 16.4177 40.348 16.4483 40.3366 16.4769C40.3213 16.1979 40.2429 15.8845 40.0289 15.596C40.0174 15.5788 39.8455 15.3189 39.4881 15.1221C39.727 14.9902 39.8856 14.7189 39.8818 14.4437C39.8818 14.3902 39.8722 14.3329 39.855 14.2755C39.9448 14.2297 40.0327 14.1647 40.113 14.0749C40.306 13.857 40.3404 13.6048 40.348 13.5073C40.3519 13.4443 40.3041 13.3888 40.241 13.385C40.1761 13.3812 40.1225 13.429 40.1187 13.492C40.113 13.5666 40.0862 13.7577 39.941 13.922C39.8818 13.9889 39.8149 14.0367 39.7461 14.073C39.706 14.0271 39.6563 13.9889 39.5951 13.964C39.4843 13.9182 39.3448 13.9373 39.2416 14.0137C39.1518 14.0806 39.104 14.1762 39.1136 14.2793C39.1174 14.3329 39.1594 14.3749 39.211 14.3825C39.2435 14.3864 39.4251 14.4093 39.6372 14.3558C39.6448 14.3864 39.6486 14.4169 39.6486 14.4456C39.6525 14.6501 39.5244 14.8507 39.341 14.9367C39.297 14.9558 39.2512 14.9692 39.2034 14.9768C39.2149 14.952 39.2263 14.9252 39.2359 14.8985C39.2607 14.8297 39.2836 14.7418 39.2454 14.6501C39.1919 14.5259 39.0505 14.4685 38.8575 14.4953C38.8078 14.5029 38.6377 14.5354 38.5479 14.6539C38.5078 14.7093 38.4906 14.7724 38.5021 14.8373C38.5059 14.8603 38.5135 14.8832 38.5231 14.9061C38.4505 14.9157 38.3721 14.9367 38.3014 14.9845C38.1772 15.0705 38.0989 15.2539 38.1887 15.4049C38.29 15.5731 38.5174 15.5673 38.6874 15.489C38.8288 15.424 38.9531 15.3265 39.0524 15.2081C39.0734 15.2081 39.0945 15.2119 39.1155 15.2119C39.5913 15.3705 39.8168 15.7049 39.8321 15.7278C40.327 16.3948 39.9926 17.2241 39.9888 17.2318C39.9659 17.2891 39.9907 17.3541 40.0461 17.3789L40.0939 17.3885C40.1359 17.3885 40.1761 17.3655 40.1971 17.3254C40.3308 17.0617 40.4589 16.7731 40.5754 16.4693C40.7971 15.8941 40.9615 15.2979 41.0666 14.6978C41.0704 14.6787 41.0666 14.6615 41.0627 14.6462V14.6348C41.0513 14.5736 40.9939 14.5316 40.9309 14.5431C40.9634 14.4819 40.9901 14.4036 40.95 14.3233C40.9003 14.2182 40.7837 14.2029 40.7054 14.1934C40.7321 14.1666 40.7704 14.136 40.8143 14.1093C40.95 14.0252 41.0971 14.0195 41.1984 14.029C41.2347 14.0309 41.271 14.0175 41.2959 13.9908C41.5863 13.6602 41.8978 13.3315 42.2227 13.0124C42.4979 12.741 42.7749 12.4888 43.0463 12.2499C43.2393 12.5652 43.4361 12.7888 43.568 12.8672C43.6138 12.8939 43.6559 12.9073 43.6941 12.9073C43.7151 12.9073 43.7361 12.9035 43.7552 12.8958C43.8967 12.8366 43.8565 12.6799 43.7896 12.42C43.7457 12.2461 43.6845 12.0034 43.6425 11.7015L43.6578 11.69L43.6941 11.6594C43.7457 11.6174 43.8546 11.5295 44.017 11.455C44.0572 11.4359 44.1527 11.3919 44.4833 11.3136C44.6419 11.2753 44.7986 11.2448 44.9591 11.218C45.2706 11.3766 45.5859 11.434 45.8248 11.476C46.0159 11.5104 46.2013 11.5238 46.3771 11.5238C46.9255 11.5238 47.3918 11.3843 47.7166 11.2467C47.7759 11.2218 47.8026 11.155 47.7778 11.0957C47.7529 11.0365 47.6861 11.0097 47.6268 11.0346C47.2274 11.2027 46.5968 11.3785 45.8611 11.2486C45.519 11.1874 45.005 11.0957 44.6152 10.6791C44.1413 10.1727 44.0018 9.36632 44.2674 8.67264C44.2999 8.59047 44.4432 8.26561 44.7413 7.96942C44.7623 7.95031 44.7814 7.9312 44.8024 7.91209C44.8216 7.89489 44.8407 7.8796 44.8598 7.86432C44.9056 7.8261 44.9477 7.79361 44.984 7.76877C45.0356 7.73246 45.0872 7.69615 45.1445 7.66367C45.5152 7.45728 46.0274 7.34263 46.6694 7.32161C46.7459 7.3197 46.7803 7.31779 46.8147 7.27574L46.7268 7.20313L46.7096 7.09038C46.7096 7.09038 46.6847 7.09038 46.6618 7.09229C45.9834 7.11523 45.435 7.23944 45.0337 7.46493C44.9878 7.48977 44.9458 7.52035 44.9037 7.54901L44.8865 7.55665L44.856 7.57958C44.7986 7.61971 44.7451 7.66176 44.6954 7.7038L44.6725 7.72291L44.6668 7.72864C44.6362 7.7573 44.6056 7.78406 44.577 7.81272C43.5336 8.78539 43.3826 10.2893 43.3692 10.9046C43.354 11.627 43.4915 12.1601 43.5718 12.4792C43.5833 12.5213 43.5928 12.5652 43.6024 12.6054C43.3425 12.355 42.7979 11.5333 42.6851 10.5358C42.5437 9.28032 43.0845 7.97133 44.0629 7.20122C44.7489 6.65851 45.5611 6.3948 46.3541 6.45595C46.9905 6.50372 47.5886 6.75024 48.1332 7.18593C49.9543 8.64589 49.4269 11.6059 49.404 11.7302C49.3983 11.7645 49.404 11.8009 49.4288 11.8276C49.6257 12.0531 49.8282 12.2977 50.0327 12.5557C50.5353 13.1863 51.0111 13.8456 51.4449 14.5125C51.464 14.5411 51.4946 14.5603 51.5309 14.5641C51.6799 14.5775 51.8041 14.6271 51.8978 14.7093C51.936 14.7418 51.9666 14.78 51.9895 14.8106C51.9092 14.8068 51.7927 14.8029 51.7277 14.8985C51.6761 14.973 51.6914 15.0533 51.7124 15.1202L51.7048 15.1163C51.5939 15.0762 51.4583 15.0246 51.3608 15.1125C51.2805 15.1851 51.2977 15.2921 51.3092 15.3609L51.313 15.3896C51.2882 15.3839 51.2557 15.3686 51.2328 15.3457C51.2041 15.317 51.2003 15.2845 51.1945 15.1909C51.1907 15.1106 51.185 15.0112 51.141 14.8737C51.0952 14.7781 51.0455 14.6806 50.9901 14.5832C50.6652 14.0099 50.22 13.4978 49.6715 13.0602C49.6505 13.0372 49.6199 13.0219 49.5855 13.0258H49.5817L49.5569 13.0334L49.5397 13.0391L49.5225 13.0525L49.5053 13.0678L49.5015 13.0716L49.4938 13.085L49.4823 13.106L49.4785 13.129V13.1442C49.4843 13.4309 49.511 13.7042 49.5588 13.9774C49.6199 14.3252 49.6964 14.566 49.7461 14.7246L49.7518 14.7437C49.4823 14.5373 48.9301 13.9144 48.6625 13.0735L48.6511 13.0353C48.4925 12.5155 48.46 11.9633 48.5555 11.3938C48.5651 11.3308 48.523 11.2715 48.4619 11.262C48.3988 11.2524 48.3396 11.2945 48.33 11.3556C48.2269 11.969 48.2632 12.5633 48.439 13.1251C48.5039 14.0844 48.4982 15.0456 48.4256 15.9858C48.3931 16.4043 48.3472 16.8228 48.2899 17.2298L48.1217 17.2356C48.0893 17.2356 48.0587 17.2528 48.0377 17.2776C48.0167 17.3025 48.0071 17.3349 48.0128 17.3674C48.1485 18.2923 48.1695 19.2019 48.0759 20.0714C48.0682 20.1459 48.0587 20.2262 48.0472 20.3122C47.9479 21.1454 47.8103 22.2843 48.3052 22.5251C48.3492 22.5461 48.3988 22.5614 48.4466 22.5728C48.5536 22.6034 48.6224 22.6263 48.6625 22.6913C48.6969 22.7467 48.7027 22.8232 48.6836 22.9187H47.3765L47.3421 22.0148C47.3211 21.4568 47.3 20.9008 47.2981 20.8453C47.2427 19.3835 47.2102 18.5006 46.7306 18.3248C46.658 18.2961 46.5567 18.2981 46.335 18.3H46.293C46.0274 18.3038 45.6241 18.3095 45.4139 18.407C44.9935 18.6019 44.9725 19.2688 44.94 20.2797C44.9324 20.509 44.9247 20.7574 44.9114 21.0212C44.8808 21.6346 44.8235 22.2728 44.7413 22.9168H43.5317C43.5126 22.8213 43.5202 22.7448 43.5527 22.6894C43.5928 22.6225 43.6616 22.5996 43.7686 22.569C43.8164 22.5556 43.8642 22.5423 43.91 22.5193C44.405 22.2786 44.2674 21.1377 44.168 20.3065C44.1585 20.2205 44.1489 20.1383 44.1394 20.0657C44.0457 19.1962 44.0667 18.2866 44.2024 17.3617C44.2062 17.3292 44.1986 17.2967 44.1776 17.2719C44.1565 17.247 44.126 17.2318 44.0935 17.2298L43.9387 17.2241C43.9311 16.7005 43.9444 16.1654 43.975 15.6342C44.0075 15.0762 44.0534 14.652 44.0897 14.3099C44.1642 13.6124 44.1986 13.2933 43.9463 13.1175C43.4457 12.7697 42.345 13.4806 41.743 14.1303C41.594 14.2927 41.5347 14.4016 41.5309 14.4074C41.4717 14.522 41.4487 14.6195 41.4315 14.6978C41.4105 14.7896 41.401 14.8201 41.3685 14.845C41.3513 14.8584 41.3284 14.8679 41.3035 14.8717C41.2653 14.8794 41.2366 14.9061 41.2233 14.9405L41.2137 14.9616C40.9099 16.2304 40.6041 17.5012 40.2984 18.7701L40.2735 18.8713C40.2678 18.9019 40.1283 19.6529 40.0366 21.6651C40.0289 21.8409 40.0366 21.9728 40.048 22.1543C40.0595 22.311 40.0652 22.3817 40.092 22.4391C40.1569 22.5767 40.2678 22.6283 40.3652 22.6741C40.4379 22.7066 40.5047 22.7391 40.5659 22.8079C40.5946 22.8385 40.6175 22.8767 40.6366 22.9187H39.4136C39.3945 22.8499 39.3754 22.7697 39.3563 22.6779C39.3276 22.5499 39.3123 22.4524 39.2989 22.3779C39.2722 22.2136 39.2569 22.1238 39.1652 22.034C39.0276 21.8983 38.846 21.8983 38.5384 21.8964C38.2212 21.8945 37.9899 21.8925 37.8332 22.0626C37.7587 22.1429 37.7453 22.2155 37.709 22.4085C37.6995 22.4601 37.688 22.5232 37.6727 22.5996C37.646 22.7238 37.623 22.8308 37.602 22.9206H36.5892C36.5644 22.7945 36.5586 22.6626 36.6217 22.59C36.6485 22.5595 36.6905 22.5384 36.7383 22.5136C36.8243 22.4696 36.9332 22.4161 36.9905 22.2805C37.023 22.204 37.0364 22.1199 37.0287 22.032C37.0039 21.6957 37.0211 21.5868 37.0402 21.5562C37.0536 21.5352 37.065 21.5218 37.0746 21.5084C37.516 21.002 36.765 18.4032 36.6083 17.8834C36.3484 17.1439 36.1879 16.3814 36.1287 15.617C36.1172 15.4508 36.1096 15.2883 36.1057 15.1297C36.1057 15.0743 36.0599 15.0265 36.0102 15.0208L35.993 14.9979C35.9643 14.9711 35.9586 14.9386 35.951 14.8488C35.9433 14.7685 35.9357 14.6692 35.8898 14.545C35.886 14.5335 35.842 14.4208 35.7178 14.2411C35.5248 13.966 34.7853 13.2494 33.8336 12.4181C33.7973 12.3856 33.7438 12.3799 33.7018 12.4047C33.6597 12.4296 33.6368 12.4773 33.6464 12.5251C33.8451 13.5608 33.975 14.6099 34.0343 15.6438C34.063 16.1578 34.0763 16.6776 34.0706 17.2337L33.9177 17.2394C33.8852 17.2394 33.8547 17.2566 33.8336 17.2814C33.8126 17.3063 33.8031 17.3388 33.8088 17.3713C33.9445 18.2942 33.9655 19.2038 33.8719 20.0752C33.8642 20.1498 33.8547 20.23 33.8432 20.316C33.7438 21.1492 33.6062 22.2881 34.1012 22.5289C34.1451 22.5499 34.1948 22.5652 34.2426 22.5767C34.3496 22.6072 34.4184 22.6302 34.4585 22.6951C34.491 22.7506 34.4986 22.8251 34.4795 22.9206H32.8896C32.8075 22.2766 32.7501 21.6403 32.7196 21.025C32.7062 20.7594 32.6985 20.5109 32.6909 20.2835C32.6584 19.2726 32.6374 18.6057 32.217 18.4108C32.0068 18.3133 31.6055 18.3076 31.3379 18.3038H31.2959C31.0761 18.3038 30.9768 18.3 30.9023 18.3286C30.4054 18.5044 30.3729 19.4446 30.3213 20.8664C30.2888 21.7588 30.2659 22.4754 30.2525 22.9225H28.5652C28.548 22.8289 28.5537 22.7525 28.5862 22.697C28.6263 22.6302 28.6951 22.6072 28.8021 22.5767C28.8499 22.5633 28.8977 22.5499 28.9435 22.527C29.4385 22.2862 29.3009 21.1473 29.2015 20.3141C29.192 20.2262 29.1805 20.1459 29.1729 20.0714C29.0792 19.2019 29.1002 18.2923 29.2359 17.3674C29.2397 17.3349 29.2321 17.3025 29.2111 17.2776C29.1901 17.2528 29.1595 17.2375 29.127 17.2356L28.9607 17.2298C28.9015 16.819 28.8556 16.4005 28.8251 15.9839C28.7352 14.8201 28.7524 13.6315 28.8786 12.4506C28.8843 12.3971 28.8518 12.3474 28.8021 12.3302C28.7524 12.313 28.697 12.3302 28.6684 12.378C28.4448 12.7315 28.246 12.999 28.1161 13.171L28.0511 13.2551C27.8275 13.5436 27.3632 14.1437 27.1186 14.5813C27.0192 14.7628 26.9906 14.8488 26.9791 14.9023C26.9485 15.0284 26.9504 15.1278 26.9523 15.2081C26.9523 15.3017 26.9523 15.3342 26.9256 15.3648C26.9027 15.3915 26.8683 15.4087 26.8491 15.4183V15.3858C26.8587 15.3151 26.8683 15.2081 26.7823 15.1412C26.6791 15.0609 26.5453 15.1221 26.4402 15.1698L26.4326 15.1737C26.4498 15.1068 26.4574 15.0246 26.402 14.9558C26.3294 14.866 26.2128 14.8775 26.1325 14.887C26.1536 14.8545 26.1822 14.8163 26.2185 14.78C26.3294 14.6673 26.4727 14.6252 26.5721 14.6099C26.6103 14.6042 26.6428 14.5794 26.6581 14.545C27.1415 13.5226 27.5008 12.7525 27.8275 12.0378C28.0798 11.4913 28.2957 11.0193 28.8155 10.7174C29.0601 10.5759 29.3334 10.4938 29.6506 10.467C29.6926 10.4632 29.7308 10.4364 29.7461 10.3963C29.7633 10.3562 29.7557 10.3122 29.7289 10.2778C29.4767 9.97591 29.2799 9.66442 29.1289 9.32236C28.5633 8.04777 28.848 6.87636 28.9416 6.49226C29.0735 5.94955 29.2722 5.5215 29.3964 5.32276C29.3964 5.382 29.3964 5.44506 29.3964 5.49475C29.3907 5.77183 29.3869 5.94 29.5283 5.96866C29.6601 5.99541 29.7156 5.85592 29.7996 5.64571C29.8398 5.54443 29.9621 5.23295 30.0309 5.22913C30.0939 5.23104 30.222 5.51386 30.2774 5.63425C30.3978 5.89605 30.5029 6.12154 30.6844 6.10052C30.8086 6.08523 30.8526 5.97439 30.9023 5.84445C30.9443 5.73553 31.0016 5.58456 31.1258 5.41258C31.2902 5.18709 31.3972 5.10491 31.4392 5.08581C31.4698 5.16224 31.4564 5.40302 31.4507 5.53679C31.4354 5.84445 31.4239 6.06612 31.5845 6.11963C31.7545 6.17504 31.894 5.95146 32.087 5.64571C32.152 5.54252 32.2495 5.38391 32.3183 5.30748C32.3297 5.40875 32.3221 5.58838 32.3183 5.70495C32.3049 6.03937 32.2953 6.25912 32.452 6.30308C32.6106 6.34512 32.7043 6.15593 32.8571 5.84063C32.9374 5.67629 33.1228 5.2941 33.2107 5.28645C33.31 5.31321 33.4801 5.84636 33.5279 6.73686C33.5738 7.61589 33.6674 9.44658 32.5973 10.1192C32.0718 10.4498 31.2997 10.488 31.2902 10.488C31.0475 10.5014 30.8086 10.488 30.5583 10.4422C30.4952 10.4307 30.436 10.4728 30.4245 10.5358C30.4131 10.5989 30.4551 10.6581 30.5182 10.6696C30.7857 10.7174 31.0418 10.7326 31.2997 10.7193C31.3036 10.7193 31.5749 10.7078 31.9151 10.6294C32.3928 10.597 32.838 10.6638 33.2355 10.8282C33.591 10.9772 34.0477 11.2715 35.3911 13.0659C35.6643 13.4309 35.9376 13.8093 36.1822 14.1609C36.2032 14.1895 36.2357 14.2086 36.272 14.2106C36.3733 14.2144 36.5185 14.2392 36.6408 14.3405C36.679 14.373 36.7134 14.4074 36.7364 14.438C36.6561 14.436 36.5376 14.438 36.4746 14.5354C36.4268 14.6119 36.444 14.6921 36.4669 14.7571C36.4325 14.7475 36.3981 14.7552 36.3714 14.7743L36.3427 14.8029L36.3255 14.8316V14.8393L36.3217 14.8584V14.8889C36.3465 15.0189 36.3867 15.2291 36.4287 15.489C36.4707 15.7527 36.4956 15.9514 36.5147 16.1139C36.5529 16.4292 36.5778 16.6203 36.6771 16.884C36.7268 17.0999 36.8434 17.3751 37.1052 17.6331C37.2733 17.8089 37.4625 17.9273 37.646 18.0095C37.8963 18.128 38.1677 18.1872 38.4467 18.1872C38.4715 18.1872 38.4963 18.1872 38.5231 18.1872C38.9263 18.1777 39.3295 18.042 39.6697 17.7993C39.7213 17.763 39.7327 17.6923 39.6964 17.6407C39.6601 17.5891 39.5894 17.5757 39.5378 17.612C39.2034 17.8375 38.8288 17.956 38.4639 17.9598C38.4428 17.9598 38.4218 17.9598 38.3989 17.9598C38.2708 17.9541 38.0262 17.9273 37.7683 17.8184C37.7377 17.805 37.7071 17.7897 37.6765 17.7745C37.5141 17.6866 37.3842 17.591 37.281 17.4916L37.2676 17.4764C37.065 17.2623 36.979 17.0387 36.8969 16.8228C36.7975 16.3737 36.9447 15.8903 37.2791 15.5578C37.5084 15.3323 37.7683 15.2367 37.9441 15.1966C38.0052 15.1832 38.0454 15.1202 38.0301 15.059C38.0167 14.9979 37.9555 14.9596 37.8925 14.973C37.6861 15.0208 37.3842 15.1316 37.1166 15.3953C36.9408 15.5692 36.8109 15.7775 36.7287 16.003C36.7096 15.8559 36.6867 15.6801 36.6523 15.4584C36.6236 15.2845 36.5969 15.1355 36.5758 15.0132C36.6198 15.0112 36.6618 14.9979 36.6943 14.9577C36.7631 14.8775 36.723 14.78 36.6943 14.717L36.6752 14.6711C36.6943 14.6711 36.7173 14.6711 36.7345 14.6711C36.8109 14.6711 36.9236 14.673 36.9752 14.5755C37.0612 14.415 36.8472 14.222 36.7803 14.1666C36.6313 14.0443 36.4631 14.0003 36.3331 13.987C36.0943 13.6468 35.8325 13.2818 35.5688 12.9302C34.191 11.09 33.7018 10.7804 33.3177 10.618C33.0693 10.5167 32.8055 10.4517 32.5285 10.4192C32.5915 10.3887 32.6546 10.3543 32.7157 10.318C33.8986 9.5727 33.8012 7.6522 33.7534 6.7273C33.7266 6.2381 33.6234 5.09727 33.2298 5.06287C32.9928 5.03803 32.8247 5.382 32.6489 5.74508C32.6145 5.81387 32.5743 5.89604 32.538 5.96484C32.538 5.88649 32.5418 5.79285 32.5438 5.72024C32.559 5.36289 32.5686 5.103 32.3947 5.0495C32.2227 4.9979 32.0832 5.22148 31.8883 5.53106C31.8272 5.62851 31.7354 5.77374 31.6705 5.854C31.6666 5.77183 31.6705 5.64762 31.6762 5.5559C31.6934 5.2253 31.7087 4.94057 31.5176 4.86987C31.422 4.83547 31.2596 4.84121 30.9328 5.28837C30.7933 5.48137 30.7264 5.65527 30.6825 5.76992C30.671 5.8005 30.6577 5.83489 30.6462 5.85974C30.5965 5.8005 30.5258 5.64571 30.4818 5.54634C30.3538 5.26543 30.2239 5.00172 30.0194 5.00746C29.8283 5.01319 29.7156 5.23868 29.6219 5.4699C29.6277 5.20811 29.6238 5.03421 29.4901 4.9979C29.4633 4.99026 29.4194 4.98835 29.3697 5.01701C29.1805 5.12976 28.8747 5.79668 28.7161 6.4464C28.6187 6.84961 28.3187 8.07834 28.9149 9.42364C29.0486 9.72366 29.2149 10.0027 29.4194 10.2702C29.1537 10.3141 28.9168 10.3982 28.697 10.5243C28.1142 10.8626 27.8715 11.39 27.6097 11.9614C27.2925 12.6512 26.9409 13.4041 26.4708 14.4016C26.3045 14.438 26.1593 14.5144 26.0504 14.6252C26.0064 14.6692 25.7924 14.8966 25.8994 15.0533C25.9625 15.145 26.0752 15.1316 26.1497 15.1221C26.1669 15.1202 26.1899 15.1183 26.2071 15.1163L26.1937 15.1641C26.1746 15.231 26.144 15.3323 26.2204 15.403C26.3083 15.4871 26.4268 15.4336 26.53 15.3858C26.5549 15.3743 26.5931 15.3571 26.6217 15.3476V15.3724C26.6122 15.445 26.6026 15.5539 26.6944 15.6208C26.8109 15.7049 27.0001 15.6361 27.0957 15.5234C27.1817 15.424 27.1797 15.317 27.1778 15.2119C27.1778 15.1412 27.1759 15.0628 27.1988 14.9616C27.2027 14.9405 27.218 14.8756 27.3154 14.6998C27.5505 14.2793 28.0091 13.687 28.2288 13.4041L28.2957 13.3181C28.376 13.213 28.483 13.0697 28.6053 12.892C28.5193 13.9354 28.5155 14.9826 28.5938 16.0107C28.6282 16.4636 28.6798 16.9184 28.7448 17.3655C28.7524 17.419 28.7983 17.4611 28.8537 17.463L28.9894 17.4687C28.8671 18.3688 28.8518 19.2535 28.9435 20.1039C28.9512 20.1784 28.9607 20.2606 28.9722 20.3485C29.0486 20.981 29.1881 22.1582 28.8423 22.3263C28.8117 22.3416 28.7773 22.3493 28.7391 22.3607C28.6301 22.3913 28.4792 22.4333 28.3894 22.5824C28.332 22.6779 28.3148 22.7926 28.3339 22.9264H18.5824V21.0403C19.0716 21.0364 19.7424 20.9371 20.1819 20.4995C20.6481 20.0332 20.7227 19.2898 20.7265 18.8885V18.5981H20.7284H20.4379C20.0347 18.6038 19.2895 18.6764 18.8251 19.1389C18.6264 19.3376 18.5022 19.586 18.4219 19.8364C18.3397 19.5841 18.2155 19.3357 18.0187 19.1389C17.5543 18.6764 16.8091 18.6019 16.4058 18.6H16.1154V18.8885C16.1211 19.2898 16.1956 20.0351 16.6619 20.4995C17.1053 20.9409 17.7836 21.0364 18.2747 21.0403H18.2824L18.2977 21.0422V22.9283H11.2329V17.4267C14.2197 17.3063 16.6256 13.4768 16.6256 8.78157C16.6256 4.08638 14.1414 0.125 11.0896 0.125C8.03784 0.125 5.55361 4.00612 5.55361 8.77584C5.55361 13.5455 7.95949 17.3005 10.9463 17.4209V22.9225H0.0539192V23.2092H88.1331V22.9225H48.9167ZM38.6014 15.2845C38.525 15.3208 38.4218 15.3304 38.3951 15.2883C38.3779 15.2597 38.4008 15.2042 38.4409 15.1775C38.4849 15.1488 38.546 15.1335 38.632 15.1335H38.6664C38.7161 15.1355 38.7658 15.1393 38.8116 15.145C38.7505 15.2023 38.6798 15.2482 38.6034 15.2845H38.6014ZM39.0295 14.8221C39.0142 14.8622 38.997 14.9004 38.976 14.9386C38.9435 14.9329 38.911 14.9272 38.8766 14.9214C38.8403 14.9023 38.8059 14.8794 38.7753 14.8507C38.7448 14.824 38.739 14.8087 38.7428 14.7915C38.7658 14.7609 38.8327 14.7322 38.8976 14.7227C38.9817 14.7112 39.039 14.7265 39.0448 14.7399C39.0486 14.7475 39.0486 14.7666 39.0295 14.8201V14.8221ZM43.6024 10.9104C43.61 10.5587 43.6654 9.89947 43.9196 9.23255C43.8756 9.82685 44.0629 10.4231 44.4527 10.8397C44.5273 10.918 44.6037 10.983 44.684 11.0441C44.6018 11.0613 44.5196 11.0747 44.4355 11.0938C44.126 11.1683 44.0037 11.2142 43.9253 11.2505C43.7896 11.3136 43.6884 11.3824 43.6177 11.4359C43.6043 11.2734 43.5966 11.0995 43.6005 10.9123L43.6024 10.9104ZM16.8721 20.2912C16.4804 19.9013 16.4154 19.2497 16.4116 18.8809C16.7823 18.8828 17.4339 18.9478 17.8238 19.3357C18.2155 19.7274 18.2824 20.3772 18.2843 20.7479C17.9136 20.746 17.2639 20.681 16.8721 20.2912ZM10.9463 9.46377L9.53219 8.03248L9.32772 8.23313L10.9444 9.8708V17.1324C8.11618 17.0101 5.83834 13.3086 5.83834 8.77392C5.83834 4.23926 8.19453 0.411641 11.0896 0.411641C13.9847 0.411641 16.339 4.16473 16.339 8.77584C16.339 13.3869 14.0611 17.012 11.2329 17.1343V13.3965L13.0483 11.5582L12.8439 11.3575L11.231 12.9895V6.2381H10.9444V9.46377H10.9463ZM19.0372 19.3357C19.427 18.9478 20.0787 18.8828 20.4494 18.8809C20.4456 19.2516 20.3806 19.9013 19.9889 20.2912C19.6029 20.6753 18.9646 20.7441 18.592 20.7479V20.639H18.5805C18.5939 20.2606 18.6818 19.693 19.0372 19.3357ZM30.4914 22.9225C30.5048 22.4754 30.5277 21.7607 30.5602 20.874C30.6022 19.6892 30.6385 18.6669 30.9902 18.5427C31.0265 18.5293 31.1411 18.5312 31.3036 18.5331H31.3437C31.5749 18.5369 31.9628 18.5427 32.1291 18.621C32.4215 18.7567 32.4406 19.4007 32.4692 20.2931C32.4769 20.5243 32.4845 20.7727 32.4979 21.0403C32.5285 21.6518 32.5858 22.2843 32.6661 22.9244H30.4933L30.4914 22.9225ZM36.3637 22.9225H34.7184C34.7356 22.7888 34.7184 22.6722 34.663 22.5786C34.5732 22.4314 34.4222 22.3875 34.3133 22.3569C34.2751 22.3473 34.2407 22.3378 34.2101 22.3225C33.8623 22.1524 34.0037 20.9753 34.0782 20.3428C34.0878 20.2549 34.0993 20.1727 34.1069 20.0982C34.1986 19.2478 34.1833 18.363 34.061 17.463L34.1967 17.4572C34.2579 17.4553 34.3056 17.4056 34.3056 17.3445C34.3133 16.7426 34.3037 16.1826 34.2712 15.6304C34.2177 14.694 34.1069 13.7462 33.9407 12.8079C34.856 13.622 35.4006 14.1742 35.5382 14.3711C35.6471 14.5259 35.6834 14.6214 35.6834 14.6214C35.7178 14.717 35.7255 14.7972 35.7312 14.8679C35.7408 14.9711 35.7484 15.0762 35.8439 15.166L35.886 15.1909C35.8898 15.3361 35.8955 15.4832 35.907 15.6361C35.9663 16.4215 36.1325 17.205 36.3962 17.9579C36.7402 19.1045 37.1835 21.0441 36.8988 21.3709C36.8873 21.3842 36.8701 21.4072 36.8491 21.4396C36.7994 21.5218 36.7746 21.6537 36.8052 22.055C36.809 22.1066 36.8052 22.1505 36.7841 22.1926C36.7612 22.2499 36.7153 22.2747 36.6408 22.3129C36.5797 22.3435 36.5109 22.3779 36.4535 22.4448C36.358 22.5575 36.3293 22.7162 36.3637 22.9244V22.9225ZM37.8428 22.9225C37.8619 22.8423 37.881 22.7506 37.902 22.6474C37.9173 22.569 37.9307 22.506 37.9403 22.4524C37.9747 22.2747 37.9804 22.2499 38.009 22.2193C38.0931 22.1276 38.2422 22.1257 38.5479 22.1257C38.825 22.1257 38.9416 22.1314 39.0085 22.1964C39.0429 22.2308 39.0505 22.2633 39.0773 22.4161C39.0906 22.4945 39.1078 22.5939 39.1365 22.7276C39.1518 22.7983 39.1671 22.8614 39.1824 22.9187H37.8428V22.9225ZM43.3616 22.5767C43.3043 22.6722 43.2871 22.7888 43.3062 22.9225H40.8869C40.8544 22.8174 40.8067 22.7276 40.7417 22.6569C40.6519 22.5556 40.5506 22.5079 40.4684 22.4716C40.3805 22.4314 40.3328 22.4066 40.306 22.3473C40.2964 22.3244 40.2888 22.225 40.285 22.1467C40.2735 21.9728 40.2659 21.8486 40.2735 21.6842C40.3633 19.695 40.5047 18.9306 40.5047 18.9287L40.5277 18.8331C40.8277 17.5834 41.1296 16.3336 41.4296 15.0839C41.4583 15.0724 41.4851 15.059 41.5099 15.0418C41.6188 14.9654 41.6418 14.8603 41.6647 14.759C41.68 14.6902 41.6972 14.6138 41.743 14.5259C41.743 14.5259 41.7946 14.4341 41.9207 14.2965C42.5781 13.5895 43.5221 13.1041 43.826 13.3162C43.9597 13.4099 43.9425 13.6411 43.8718 14.2946C43.8355 14.6386 43.7896 15.0667 43.7552 15.6304C43.7228 16.2037 43.7113 16.7808 43.7209 17.3464C43.7209 17.4076 43.7705 17.4553 43.8298 17.4592L43.9655 17.4649C43.8432 18.3649 43.8279 19.2497 43.9196 20.1001C43.9272 20.1746 43.9368 20.2568 43.9483 20.3447C44.0247 20.9772 44.1642 22.1543 43.8183 22.3244C43.7877 22.3397 43.7533 22.3473 43.7151 22.3588C43.6062 22.3894 43.4552 22.4314 43.3654 22.5805L43.3616 22.5767ZM44.9783 22.9225C45.0585 22.2824 45.1158 21.6479 45.1464 21.0384C45.1598 20.7727 45.1674 20.5224 45.1751 20.2931C45.2037 19.4007 45.2248 18.7567 45.5171 18.621C45.6834 18.5427 46.0713 18.5388 46.3197 18.535H46.3427C46.4975 18.535 46.6217 18.5312 46.6561 18.5446C46.9924 18.6688 47.0306 19.6357 47.0765 20.8702C47.0765 20.9122 47.0975 21.4683 47.1185 22.0282L47.151 22.9225H44.9783Z" fill="#55A3B1"/>
</svg>
